<mxfile host="app.diagrams.net" modified="2024-05-05T06:08:45.604Z" agent="Mozilla/5.0 (Macintosh; Intel Mac OS X 10_15_7) AppleWebKit/537.36 (KHTML, like Gecko) Chrome/124.0.0.0 Safari/537.36" version="24.3.1" etag="-G8byclNZ8oKPRmk2ENG" type="github">
  <diagram name="페이지-1" id="gMKbQOOzyS_8U7nkOWWu">
    <mxGraphModel>
      <root>
        <mxCell id="0" />
        <mxCell id="1" parent="0" />
      </root>
    </mxGraphModel>
  </diagram>
</mxfile>
